<?xml version="1.0" encoding="utf-8"?>
<!-- Generator: Adobe Illustrator 19.1.0, SVG Export Plug-In . SVG Version: 6.00 Build 0)  -->
<svg version="1.1" id="Layer_1" xmlns="http://www.w3.org/2000/svg" xmlns:xlink="http://www.w3.org/1999/xlink" x="0px" y="0px"
	 viewBox="-44 249 1111 304" style="enable-background:new -44 249 1111 304;" xml:space="preserve">
<style type="text/css">
	.st0{fill:#36B7F9;}
</style>
<path class="st0" d="M-44,284.3h78.3V367h71.6v-82.7h78.3v234.3h-78.3v-84H34.3v84H-44V284.3z"/>
<path class="st0" d="M626,284.3h78.3V372l66.6-87.7h91l-81.7,101.7l83.3,132.5h-93.4l-45.9-74.3l-20.1,24.4v49.9H626L626,284.3
	L626,284.3z"/>
<path class="st0" d="M838.8,284.3h114.5c41.5,0,67.9,10.4,84.3,26.8c14.1,14.1,21.4,31.5,21.4,55.6v0.7c0,34.1-17.7,57.9-46.2,71.6
	l54.6,79.7h-89.4l-44.2-66.9h-0.7h-16.1v66.9h-78.3L838.8,284.3L838.8,284.3z M950.9,395.8c18.8,0,30.1-8.4,30.1-22.8v-0.7
	c0-15.1-11.7-22.4-29.8-22.4h-34.1v45.8L950.9,395.8L950.9,395.8z"/>
<path class="st0" d="M294.7,249c-68.7,0-124.3,55.7-124.3,124.3c0,68.7,55.7,124.3,124.3,124.3S419,442,419,373.3
	C419,304.7,363.4,249,294.7,249z M294.7,425.6c-28.9,0-52.3-23.4-52.3-52.3c0-28.9,23.4-52.3,52.3-52.3s52.3,23.4,52.3,52.3
	C347,402.2,323.6,425.6,294.7,425.6z"/>
<path class="st0" d="M516.6,304.8c-68.7,0-124.3,55.7-124.3,124.3c0,68.7,55.7,124.3,124.3,124.3c68.7,0,124.3-55.7,124.3-124.3
	C641,360.4,585.3,304.8,516.6,304.8z M516.6,481.4c-28.9,0-52.3-23.4-52.3-52.3c0-28.9,23.4-52.3,52.3-52.3
	c28.9,0,52.3,23.4,52.3,52.3C568.9,458,545.5,481.4,516.6,481.4z"/>
</svg>
