<?xml version="1.0" encoding="UTF-8"?>
<!-- Generator: Adobe Illustrator 15.1.0, SVG Export Plug-In  -->
<!DOCTYPE svg PUBLIC "-//W3C//DTD SVG 1.1//EN" "http://www.w3.org/Graphics/SVG/1.1/DTD/svg11.dtd" [
	<!ENTITY ns_flows "http://ns.adobe.com/Flows/1.0/">
]>
<svg version="1.1" xmlns="http://www.w3.org/2000/svg" xmlns:xlink="http://www.w3.org/1999/xlink" xmlns:a="http://ns.adobe.com/AdobeSVGViewerExtensions/3.0/" x="0px" y="0px" width="1111px" height="304px" viewBox="0 0 1111 304" overflow="visible" enable-background="new 0 0 1111 304" xml:space="preserve">
<defs>
</defs>
<path fill="#FFFFFF" d="M0,35.34h78.317v82.664h71.618V35.34h78.317v234.277h-78.317v-84.002H78.317v84.002H0V35.34z"/>
<path fill="#FFFFFF" d="M669.997,35.34h78.318v87.685l66.599-87.685h91.03l-81.66,101.742l83.333,132.535h-93.378l-45.854-74.301  l-20.07,24.43v49.871h-78.318V35.34z"/>
<path fill="#FFFFFF" d="M882.829,35.34h114.456c41.504,0,67.948,10.376,84.344,26.774c14.052,14.056,21.419,31.46,21.419,55.556  v0.67c0,34.138-17.736,57.899-46.189,71.617l54.557,79.659h-89.36l-44.174-66.94h-0.666h-16.068v66.94h-78.317V35.34z   M994.944,146.787c18.75,0,30.119-8.367,30.119-22.756v-0.67c0-15.062-11.709-22.42-29.779-22.42h-34.138v45.847H994.944z"/>
<path fill="#FFFFFF" d="M338.692,0C270.025,0,214.36,55.667,214.36,124.333c0,68.661,55.666,124.328,124.332,124.328  s124.333-55.667,124.333-124.328C463.024,55.667,407.358,0,338.692,0z M338.692,176.622c-28.881,0-52.289-23.407-52.289-52.288  c0-28.882,23.408-52.29,52.289-52.29c28.881,0,52.289,23.408,52.289,52.29C390.981,153.214,367.573,176.622,338.692,176.622z"/>
<path fill="#FFFFFF" d="M560.633,55.776c-68.669,0-124.335,55.665-124.335,124.332c0,68.663,55.666,124.328,124.335,124.328  c68.663,0,124.329-55.665,124.329-124.328C684.962,111.441,629.296,55.776,560.633,55.776z M560.633,232.396  c-28.884,0-52.292-23.407-52.292-52.288c0-28.882,23.408-52.29,52.292-52.29c28.883,0,52.29,23.408,52.29,52.29  C612.923,208.989,589.516,232.396,560.633,232.396z"/>
</svg>